# xmcd
# Copyright (C) 1995-1998 Ti Kan
#
# Track frame offsets:
#       150
#       13075
#       21980
#       26027
#       56350
#
# Disc length: 917 seconds
#
# Revision: 0
# Processed by: cddbd v1.5.2PL0 Copyright (c) Steve Scherf et al.
# Submitted via: CD-Import v1.0
#
DISCID=37039305
DTITLE=Lied Der Woche - 
DYEAR=1900
DGENRE=
TTITLE0=The Good, The Bad, The Ugly
TTITLE1=The Good, The Bad, The Ugly
TTITLE2=The Good, The Bad, The Ugly
TTITLE3=The Good, The Bad, The Ugly
TTITLE4=The Good, The Bad, The Ugly
EXTD=
EXTT0=
EXTT1=
EXTT2=
EXTT3=
EXTT4=
PLAYORDER=
